<svg width="121" height="103" viewBox="0 0 121 103" fill="none" xmlns="http://www.w3.org/2000/svg">
<g clip-path="url(#clip0_563_1159)">
<path d="M103.988 54.1483C103.988 78.9855 84.6233 99.1176 60.7303 99.1176C36.8373 99.1176 17.4722 78.9855 17.4722 54.1483C17.4722 29.311 36.8373 9.17899 60.7303 9.17899C84.6233 9.17899 103.988 29.311 103.988 54.1483Z" fill="white"/>
<path d="M113.837 54.6882C113.505 47.4633 111.535 40.6755 107.902 34.5047C99.8953 20.8005 89.4837 6.17074 73.086 1.337C66 -0.745631 58.9651 -0.38567 52.1605 2.39116C47.1977 4.42237 42.6442 7.22491 38.2442 9.95032C37.093 10.6445 35.9674 11.3645 34.8163 12.0587L34.6884 12.1358C30.3651 14.7326 25.8884 17.4324 22.5884 21.9319C16.7814 29.851 13.3791 36.8188 11.8442 43.8637C10.5907 49.7002 10.8721 55.2282 11.307 60.3704C12.4325 74.306 22.3581 85.4648 31.9256 94.5152C36.8884 99.2204 43.1814 101.997 50.6 102.717C52.3907 102.897 54.1814 102.974 56.0488 102.974C60.4488 102.974 65.1558 102.486 70.4767 101.457C77.9465 100.043 83.6256 97.9863 88.3325 95.0294C93.193 91.9698 97.6186 88.5502 101.481 84.8477C104.807 81.6595 108.26 78.2142 110.563 73.9975C112.814 69.8837 113.888 64.6128 113.888 57.8507C113.914 56.848 113.888 55.8195 113.837 54.6882Z" fill="white"/>
<path d="M110.767 57.8764C110.767 62.8645 110.179 68.2124 107.851 72.5062C105.754 76.3372 102.479 79.6026 99.3582 82.5851C95.4954 86.2876 91.2233 89.5272 86.6954 92.3812C81.6303 95.5694 75.7466 97.2664 69.914 98.3719C63.6466 99.5547 57.2768 100.197 50.907 99.5804C44.5373 98.9633 38.807 96.7007 34.0745 92.2269C25.0187 83.6393 15.4768 73.1747 14.428 60.1133C13.9931 54.8168 13.7628 49.7773 14.914 44.5322C16.5768 36.8959 20.5419 30.031 25.121 23.8088C28.0884 19.7721 32.2838 17.2524 36.4535 14.7584C41.9791 11.4416 47.3768 7.76485 53.3628 5.32226C59.5535 2.77683 65.7698 2.49401 72.2163 4.37094C87.5396 8.87044 97.4908 22.9089 105.216 36.0989C108.593 41.8839 110.409 48.1061 110.716 54.8168C110.742 55.8195 110.767 56.848 110.767 57.8764ZM60.6024 96.2636C68.0721 95.8522 75.5419 93.5382 81.4256 90.2214C83.4977 89.0644 85.4931 87.7274 87.3349 86.2104C95.0861 79.9368 99.9722 69.138 101.865 59.522C102.274 57.4393 102.607 55.2796 102.454 53.197C102.095 47.9004 100.816 42.7324 98.8721 37.7958C95.3931 29.0025 89.407 22.6261 81.2721 18.1008C77.3326 15.9154 73.0349 14.9383 68.6349 14.4755C59.2721 13.4728 48.9117 14.9898 40.1373 18.4865C32.5396 21.4948 27.5512 27.2027 24.8652 34.9161C21.821 43.6837 21.1814 53.2741 23.1768 62.3502C25.0954 71.1178 29.3163 80.1425 35.4047 86.7761C36.1466 87.5989 36.9396 88.3702 37.7326 89.1415C43.7442 94.7723 52.1605 96.7264 60.6024 96.2636Z" fill="#F8AE27"/>
<path d="M63.9022 17.5352C64.5418 17.5609 65.1557 17.6123 65.7953 17.638C71.2953 18.0237 76.1813 20.0549 80.8627 22.9346C84.1627 24.9658 87.1557 27.357 89.7139 30.2881C92.9115 33.9648 95.0604 38.2329 96.7743 42.7838C98.6929 47.8747 99.5115 53.1455 99.0511 58.5706C98.5395 64.69 96.2371 70.1922 92.3743 74.9231C89.1511 78.9341 85.4162 82.5851 81.0162 85.3105C76.2325 88.2673 71.065 89.5015 65.5395 90.2214C59.1441 91.0442 52.4929 90.3757 46.686 87.4189C40.5464 84.3078 36.2232 79.0369 33.0511 73.0205C32.6674 72.2748 32.2836 71.5292 31.8999 70.7579C29.265 65.3327 27.372 59.6505 27.1929 53.6083C27.0395 48.2346 27.0139 42.7067 28.6511 37.513C29.7255 34.0934 31.6697 31.1365 34.3046 28.5911C36.4278 26.5342 38.8069 24.7344 41.2883 23.1403C43.5395 21.7004 46.1743 19.8749 48.7069 19.0522C53.6185 17.4838 58.8115 17.2781 63.9022 17.5352ZM94.5488 58.8535C94.5488 57.7736 94.4208 56.6937 94.2162 55.6138C92.9115 49.1345 90.5325 43.0409 87.1557 37.3587C84.7511 33.322 81.6813 29.7995 77.9208 26.9199C74.186 24.0659 69.6325 22.9346 65.0534 22.3175C57.0208 21.2634 48.7069 25.5057 42.4395 30.2881C38.2185 33.502 34.4069 37.1273 32.8209 42.3981C31.286 47.5404 30.4929 52.9913 31.3371 58.3392C32.2069 63.8415 35.0464 68.7781 38.2185 73.2519C40.1371 75.9516 42.6185 78.5998 45.8162 79.6797C50.0115 81.0938 54.2581 82.5594 58.6325 83.3565C67.8674 85.0534 77.2046 81.6338 84.8278 76.5172C90.5069 72.6862 94.5999 65.8213 94.5488 58.8535Z" fill="#F1A026"/>
<path d="M61.1141 78.8312C57.1234 78.677 53.2094 78.0856 49.7815 77.2114C38.4745 74.3575 35.2769 58.0821 37.5792 48.3118C39.1652 41.6268 42.1583 35.019 48.3745 31.4708C53.6443 28.4626 59.9117 26.9199 66.0257 27.3313C68.942 27.5112 72.5234 27.974 75.1327 29.4139C77.8187 30.8794 80.0955 33.5534 82.0652 35.8674C89.8931 45.1236 94.1141 58.5449 86.4141 69.1637C80.8373 76.8515 70.7071 79.1655 61.1141 78.8312ZM83.6257 54.3797C83.0885 47.9518 79.8908 41.5754 75.2862 37.513C72.7536 35.2761 69.8885 33.2963 66.5885 32.4478C58.735 30.4423 48.835 35.9189 44.5629 42.4496C42.4396 45.7149 40.7513 49.0574 40.7001 53.1198C40.649 57.6965 42.1327 61.7331 44.742 65.3585C47.8885 69.7037 52.1862 73.0719 57.5838 73.8175C61.5745 74.3575 65.6676 74.1003 69.5815 73.149C73.1629 72.2748 77.2815 70.9378 79.7117 67.9553C82.9094 64.0729 84.035 59.2134 83.6257 54.3797Z" fill="#F89831"/>
<path d="M78.5605 53.814C78.8419 58.4164 77.307 63.0444 73.6489 66.0012C67.8163 70.7064 58.3 70.2951 52.1861 66.2584C48.2466 63.6358 46.6349 57.3108 47.1466 52.8884C47.7861 47.4633 51.4186 42.4496 56.4326 40.2898C62.0093 37.8986 68.1233 37.9244 72.9326 41.9868C76.3093 44.815 78.3047 49.3145 78.5605 53.814Z" fill="#FEC025"/>
<path d="M114.937 73.0205C114.477 72.5577 113.658 72.0177 112.405 72.0177H105.856C105.242 72.0177 104.73 72.1463 104.321 72.3263C103.912 72.1463 103.4 72.0177 102.786 72.0177H97.3629C96.1349 72.0177 95.3163 72.5319 94.8047 72.9948C93.628 72.2491 92.2466 71.8377 90.6605 71.8377C88.9722 71.8377 87.5908 72.2748 86.4652 73.0719C85.8001 72.3263 84.8536 71.9149 83.8303 71.9149C82.7815 71.9149 81.8349 72.3263 81.1698 73.0719C81.0931 73.149 81.0163 73.2519 80.9396 73.3804C80.1466 72.4291 79.0466 71.9149 77.8442 71.9149C77.0512 71.9149 76.2838 72.1463 75.6698 72.5834C75.0815 72.1463 74.3396 71.9149 73.5466 71.9149C72.4977 71.9149 71.5512 72.3263 70.8861 73.0719C70.8349 73.149 70.7582 73.2004 70.707 73.3033C70.6559 73.2262 70.5791 73.149 70.528 73.0976C69.8629 72.352 68.9163 71.9406 67.8419 71.9406C66.8698 71.9406 66.0001 72.3005 65.3605 72.9433C64.2094 72.2491 62.8791 71.8635 61.3442 71.8635C59.528 71.8635 58.0442 72.352 56.8931 73.2776C55.614 74.3317 54.9233 75.7973 54.9233 77.52C54.9233 78.497 55.128 79.2941 55.4349 79.9111C55.0256 80.5025 54.7954 81.2481 54.7954 82.0195C54.7954 83.0736 55.2047 84.025 55.8698 84.6677C57.1489 85.9533 58.9652 86.5961 61.2163 86.5961C63.0838 86.5961 64.6187 86.1333 65.7442 85.2334C65.8722 85.1306 66.0001 85.0277 66.128 84.8992C67.2791 86.0305 68.814 86.6218 70.7326 86.6218C72.728 86.6218 74.0582 85.9533 74.9024 85.2591C74.928 85.2848 74.9536 85.3362 74.9791 85.362C75.6442 86.1076 76.5908 86.519 77.6396 86.519C78.6884 86.519 79.6349 86.1076 80.3001 85.362C80.3768 85.2848 80.4535 85.182 80.5303 85.0791C81.3233 86.0047 82.4233 86.519 83.6512 86.519C84.6489 86.519 85.5443 86.1333 86.2349 85.4905C87.3861 86.2361 88.8442 86.6218 90.5582 86.6218C92.2977 86.6218 93.7047 86.2104 94.8047 85.4391C95.2908 85.9276 96.1349 86.4675 97.3884 86.4675H102.812C104.091 86.4675 104.884 85.9276 105.344 85.4648C105.549 85.2591 105.779 84.9763 105.958 84.642C106.112 84.9506 106.291 85.2077 106.47 85.3877C107.135 86.1333 108.081 86.5447 109.156 86.5447C110.205 86.5447 111.177 86.1333 111.816 85.3877C112.251 84.8991 112.763 84.0764 112.763 82.7651V79.2169C113.837 79.1398 114.554 78.6513 114.963 78.2142C115.423 77.7514 115.986 76.9286 115.986 75.643C115.961 74.306 115.398 73.4833 114.937 73.0205ZM105.216 80.1682C105.293 79.8854 105.344 79.5512 105.344 79.1912C105.344 79.1655 105.344 79.1398 105.344 79.1141C105.395 79.1141 105.447 79.1398 105.523 79.1398V80.4511C105.472 80.3739 105.395 80.2968 105.344 80.2454C105.293 80.2197 105.242 80.194 105.216 80.1682Z" fill="white"/>
<path d="M34.9442 70.4236C34.8674 69.6266 34.7651 68.8809 34.6372 68.1867C34.586 67.801 34.4837 67.0297 34.3302 65.847C34.1767 64.5871 33.9721 63.0701 33.7163 61.2446C33.4605 59.4705 33.2302 57.4908 32.9744 55.3824C32.7186 53.2227 32.4628 51.0115 32.1814 48.7746C31.9 46.5377 31.6442 44.3522 31.3884 42.1925C31.1326 40.0327 30.9279 38.1043 30.7488 36.356C30.5698 34.5819 30.3907 33.1163 30.2372 31.9079C30.0326 30.3652 30.0326 30.0052 30.0326 29.9795C30.0326 29.1825 29.7512 27.9997 28.4209 26.8942C27.7558 26.3285 26.9628 25.8657 26.0674 25.5057C25.2233 25.1715 24.3279 24.9144 23.3814 24.7344C22.3326 24.5544 21.3349 24.5544 20.4395 24.7601C18.5977 25.1458 16.7558 25.5057 14.914 25.84C13.1233 26.1742 11.2814 26.4571 9.41395 26.6628C8.67209 26.7399 6.42093 27.0227 5.60232 28.8482C5.26977 29.5681 5.11628 30.3909 5.11628 31.2908C5.11628 31.5479 5.0907 32.2164 4.93721 33.8105C4.8093 35.1218 4.63023 36.7416 4.4 38.5929C4.14419 40.4955 3.88837 42.5781 3.60698 44.8407C3.32558 47.1033 3.04419 49.3917 2.73721 51.7057C2.43023 54.0197 2.12326 56.2823 1.81628 58.4421L0.972093 64.33C0.716279 66.0527 0.511628 67.4668 0.332558 68.5724C0.0255814 70.3722 0 70.7064 0 70.9636C0 71.9663 0.434884 72.8919 1.25349 73.5861C1.7907 74.0489 2.45581 74.3832 3.24884 74.6146C3.86279 74.7946 4.52791 74.8974 5.2186 74.9488C5.55116 74.9745 5.88372 75.0002 6.1907 75.0002C6.49767 75.0002 6.80465 74.9745 7.08605 74.9488C8.33953 74.8717 9.41395 74.7688 10.3605 74.6917C12.9186 74.4603 13.9419 72.6348 13.7884 70.8864C13.7372 70.4493 13.7884 69.9608 13.8907 69.4466C14.0442 68.7009 14.1977 67.9553 14.3256 67.2354L14.3512 67.1583C14.4279 66.6697 14.5046 66.3355 14.5814 66.1298C14.8884 66.1041 15.2209 66.0784 15.6046 66.0527C16.2442 66.027 16.8581 66.027 17.4465 66.0527C18.0605 66.0784 18.5721 66.1041 19.0326 66.1298C19.2116 66.1555 19.314 66.1555 19.3907 66.1812C19.3907 66.2326 19.3907 66.2584 19.4163 66.3098C19.4674 67.184 19.493 67.9553 19.4674 68.5467C19.4163 69.4466 19.4674 70.2179 19.5953 70.8864C19.7744 71.7863 20.1326 72.5319 20.6442 73.1233C21.2581 73.8175 22.1279 74.2546 23.2279 74.4346C23.6628 74.5374 24.2256 74.6146 25.0186 74.6917C25.7605 74.7688 26.5535 74.8203 27.3721 74.8717C28.2419 74.9231 29.1372 74.9231 29.9814 74.8717C31.0302 74.8203 31.8488 74.666 32.5395 74.3832L32.6163 74.3575C34.2279 73.6375 35.0977 72.172 34.9442 70.4236ZM18.8791 57.1565C18.4186 57.1822 17.907 57.2079 17.3953 57.2336C17.0884 57.2336 16.7814 57.2594 16.4744 57.2594C16.4744 56.1538 16.5512 54.8425 16.6535 53.3255C16.7814 51.6286 16.9349 49.803 17.1651 47.8747C17.3698 45.9463 17.6256 44.1208 17.8814 42.3981C17.907 42.1925 17.9581 41.9868 17.9837 41.8068C17.9837 41.8325 17.9837 41.8839 17.9837 41.9096C18.1628 43.658 18.3419 45.5349 18.4953 47.5404C18.6488 49.5459 18.7512 51.4229 18.8023 53.0941C18.8791 54.7139 18.9046 56.0766 18.8791 57.1565Z" fill="white"/>
<path d="M48.8859 47.7204C49.1929 48.1575 49.551 48.5175 49.9348 48.826C51.265 49.8545 52.7999 50.2401 54.4115 49.8802C55.6906 49.6231 56.9952 48.9546 58.2743 47.9261C59.3487 47.0519 60.3976 46.1006 61.3441 45.0464C62.2906 44.018 63.1603 42.9895 63.8766 41.9868C64.5417 41.0869 65.0534 40.3927 65.4627 39.8784C66.972 37.8215 67.7906 35.8417 67.9185 33.9391C68.0464 31.9593 67.5603 30.1595 66.4603 28.6168C65.4371 27.177 64.0045 26.02 62.1883 25.1715C60.4999 24.4001 58.5813 23.9116 56.4836 23.7316C54.4627 23.5517 52.3138 23.7059 50.0883 24.1173C47.8371 24.5544 45.6371 25.3772 43.565 26.5856L43.3859 26.6885C40.751 28.5397 38.7557 30.7252 37.4255 33.2192C36.172 35.5846 35.251 37.9758 34.7138 40.3412C34.2022 42.681 33.8952 44.9179 33.8697 47.0005C33.8441 48.9546 33.8185 50.5487 33.8185 51.7571C33.8185 52.9913 33.7673 54.3797 33.6906 55.8452C33.5883 57.4908 33.6138 59.162 33.7417 60.8075C33.8697 62.5559 34.2278 64.2529 34.7906 65.847C35.4045 67.6211 36.4022 69.1895 37.7836 70.5265C39.0627 71.7349 40.4697 72.7376 42.0045 73.4576C42.0813 73.8175 42.2092 74.1775 42.3627 74.6146C41.4417 74.5632 40.5464 74.5374 39.7022 74.5889C36.0441 74.7688 34.9441 76.4144 34.6883 77.7257C34.458 78.8055 34.5859 80.5025 36.4022 82.3023C37.4766 83.3565 38.8836 84.3078 40.7255 85.1563C42.6185 86.0305 44.5627 86.4675 46.558 86.4675C47.965 86.4675 49.3464 86.3647 50.651 86.1847C52.0324 85.979 53.2603 85.6705 54.2836 85.2591C55.4859 84.7449 56.4324 84.0764 57.0976 83.2279C58.0441 82.0195 58.1976 80.4768 57.5324 78.9855L57.379 78.7027C57.0976 78.2399 56.6115 77.6485 55.8185 76.8258C55.2813 76.2601 54.7185 75.6945 54.1557 75.1288C54.8464 75.026 55.5371 74.8974 56.2278 74.7174C58.2231 74.2289 59.9371 73.4833 61.3696 72.5577C62.9557 71.5035 64.1069 70.1665 64.8231 68.5724C65.5906 66.8497 65.6417 64.9214 64.9766 62.8644C64.7208 61.9903 64.0557 61.3218 63.058 60.8332C62.4441 60.5247 61.8045 60.3447 61.1394 60.2419C60.3464 60.1133 59.5789 60.1905 58.8115 60.4219C57.558 60.8332 56.7138 61.8103 56.5092 63.0187C56.4836 63.173 56.3557 63.5329 55.8952 64.0986C55.4092 64.69 54.8208 65.2299 54.1301 65.6927C53.465 66.1555 52.7231 66.5155 51.9301 66.7726C51.2906 66.9783 50.7534 67.0297 50.2673 66.9011C50.0627 66.8497 49.7557 66.7469 49.3976 66.2584C49.1929 65.9755 48.8348 65.2556 48.7324 63.6101C48.4255 59.2906 48.3743 55.2282 48.5534 51.5514C48.6557 50.2916 48.758 48.9803 48.8859 47.7204Z" fill="white"/>
<path d="M100.688 68.2124C100.637 67.8268 100.535 67.0554 100.381 65.8727C100.228 64.6128 100.023 63.0959 99.7674 61.2703C99.5115 59.4963 99.2813 57.5165 99.0255 55.4081C98.7697 53.2484 98.5139 51.0372 98.2325 48.8003C97.9511 46.5634 97.6953 44.3779 97.4394 42.2182C97.1836 40.0584 96.979 38.1301 96.7999 36.3817C96.6208 34.6076 96.4418 33.142 96.2883 31.9336C96.0836 30.3909 96.0836 30.0309 96.0836 30.0052C96.0836 29.2082 95.8022 28.0255 94.472 26.9199C93.8069 26.3542 93.0139 25.8914 92.1185 25.5314C91.2743 25.1972 90.379 24.9401 89.4325 24.7601C88.3836 24.5801 87.386 24.5801 86.4906 24.7858C84.6488 25.1715 82.8069 25.5314 80.965 25.8657C79.1743 26.1999 77.3325 26.4828 75.465 26.6885C74.7232 26.7656 72.472 27.0484 71.6534 28.8739C71.3209 29.5939 71.1674 30.4166 71.1674 31.3165C71.1674 31.5736 71.1418 32.2421 70.9883 33.8362C70.8604 35.1475 70.6813 36.7673 70.4511 38.6186C70.1953 40.5212 69.9395 42.6038 69.6581 44.8664C69.3767 47.1291 69.0953 49.4174 68.7883 51.7314C68.4813 54.0454 68.1743 56.308 67.8674 58.4678L67.0232 64.3557C66.7674 66.0784 66.5627 67.4925 66.3836 68.5981C66.1022 70.3465 66.0767 70.6807 66.0767 70.9378C66.0767 71.9406 66.5116 72.8662 67.3302 73.5604C67.8674 74.0232 68.5325 74.3575 69.3255 74.5889C69.9395 74.7688 70.6046 74.8717 71.2953 74.9231C71.6278 74.9488 71.9604 74.9745 72.2674 74.9745C72.5743 74.9745 72.8813 74.9488 73.1627 74.9231C74.4162 74.846 75.4906 74.7431 76.4371 74.666C78.9953 74.4346 80.0185 72.6091 79.865 70.8607C79.8139 70.4236 79.865 69.9351 79.9674 69.4209C80.1208 68.6752 80.2743 67.9296 80.4022 67.2097L80.4278 67.1325C80.5046 66.644 80.5813 66.3098 80.6581 66.1041C80.965 66.0784 81.2976 66.0527 81.6813 66.027C82.3208 66.0012 82.9348 66.0012 83.5232 66.027C84.1371 66.0527 84.6488 66.0784 85.1092 66.1041C85.2883 66.1298 85.3906 66.1298 85.4674 66.1555C85.4674 66.2069 85.4674 66.2326 85.4929 66.2841C85.5441 67.1583 85.5697 67.9296 85.5441 68.521C85.4929 69.4209 85.5441 70.1922 85.672 70.8607C85.8511 71.7606 86.2092 72.5062 86.7208 73.0976C87.3348 73.7918 88.2046 74.2289 89.3046 74.4089C89.7395 74.5117 90.3022 74.5889 91.0953 74.666C91.8371 74.7431 92.6301 74.7946 93.4487 74.846C94.3185 74.8974 95.2139 74.8974 96.0581 74.846C97.1069 74.7946 97.9255 74.6403 98.6162 74.3575L98.6929 74.3318C100.305 73.6118 101.174 72.172 101.021 70.4236C100.919 69.6266 100.816 68.8809 100.688 68.2124ZM84.9301 57.1565C84.4697 57.1822 83.9581 57.2079 83.4464 57.2336C83.1395 57.2336 82.8325 57.2594 82.5255 57.2594C82.5255 56.1538 82.6022 54.8425 82.7046 53.3255C82.8325 51.6286 82.986 49.803 83.2162 47.8747C83.4208 45.9463 83.6767 44.1208 83.9325 42.3981C83.9581 42.1925 84.0092 41.9868 84.0348 41.8068C84.0348 41.8325 84.0348 41.8839 84.0348 41.9096C84.2139 43.658 84.3929 45.5349 84.5464 47.5404C84.6999 49.5459 84.8022 51.4229 84.8534 53.0941C84.9302 54.7139 84.9557 56.0766 84.9301 57.1565Z" fill="white"/>
<path d="M6.907 72.5834C6.47212 72.6348 5.98607 72.6348 5.42328 72.5834C4.86049 72.5319 4.34886 72.4548 3.8884 72.3263C3.42793 72.1977 3.04421 72.0177 2.76282 71.7863C2.48142 71.5549 2.35352 71.2721 2.35352 70.9893C2.35352 70.8093 2.45584 70.1665 2.63491 69.0609C2.81398 67.9296 3.04421 66.5155 3.27445 64.7671C3.53026 63.0187 3.81166 61.0647 4.11863 58.8792C4.42561 56.6937 4.73259 54.4568 5.03956 52.1171C5.34654 49.7773 5.65352 47.489 5.90933 45.2264C6.19073 42.9638 6.44654 40.8812 6.70235 38.9785C6.95817 37.0759 7.13724 35.4561 7.26514 34.0934C7.39305 32.7307 7.44421 31.8308 7.44421 31.3422C7.44421 30.7766 7.54654 30.2881 7.72561 29.8767C7.90468 29.4653 8.56979 29.2082 9.66979 29.0796C11.5884 28.8739 13.4814 28.5911 15.3233 28.2312C17.1907 27.8969 19.0326 27.5112 20.9 27.1256C21.514 26.997 22.2047 26.997 22.9977 27.1256C23.7651 27.2541 24.507 27.4598 25.1721 27.7426C25.8628 28.0255 26.4512 28.3597 26.9372 28.7711C27.4233 29.1825 27.6791 29.5939 27.6791 30.031C27.6791 30.3395 27.7558 31.0851 27.9093 32.2678C28.0628 33.4506 28.2419 34.9161 28.421 36.6645C28.6 38.4129 28.8303 40.3669 29.0605 42.5267C29.3163 44.6865 29.5721 46.8719 29.8535 49.1346C30.1349 51.3714 30.3907 53.5826 30.6465 55.7424C30.9024 57.9021 31.1326 59.8819 31.3884 61.656C31.6442 63.4558 31.8233 64.9728 32.0024 66.2069C32.1558 67.4668 32.2582 68.2639 32.3349 68.6752C32.4628 69.2666 32.5396 69.9351 32.6163 70.6807C32.6675 71.4264 32.3605 71.9406 31.6954 72.2234C31.2605 72.4034 30.6465 72.5062 29.8791 72.5577C29.1117 72.6091 28.3186 72.6091 27.5256 72.5577C26.7326 72.5062 25.9651 72.4548 25.2489 72.4034C24.5326 72.3263 24.021 72.2748 23.714 72.172C23.1 72.0949 22.6651 71.9149 22.4093 71.6321C22.1535 71.3492 22 70.9636 21.8977 70.5008C21.7954 70.0379 21.7698 69.4466 21.7954 68.7267C21.821 68.0067 21.821 67.1583 21.7442 66.1812C21.6931 65.6156 21.6163 65.2042 21.514 64.9471C21.4117 64.69 21.0024 64.3814 20.2605 64.0472C20.0814 63.97 19.7233 63.8929 19.2372 63.8415C18.7512 63.7901 18.1628 63.7644 17.5233 63.7386C16.8837 63.7129 16.2186 63.7129 15.5279 63.7386C14.8372 63.7644 14.2489 63.8158 13.7628 63.8929C13.2768 63.97 12.8931 64.2786 12.6117 64.7928C12.3303 65.307 12.1256 66.0012 11.9977 66.8497C11.8698 67.5439 11.7419 68.2639 11.5884 68.9838C11.4349 69.7294 11.3837 70.4236 11.4605 71.1178C11.5117 71.8635 11.0768 72.2491 10.1558 72.352C9.20933 72.4034 8.13491 72.4805 6.907 72.5834ZM17.6512 35.1989C17.2163 35.4561 16.8326 36.2274 16.5 37.4873C16.1675 38.7471 15.8605 40.2641 15.5791 42.0125C15.2977 43.7609 15.0419 45.6121 14.8372 47.6176C14.607 49.5974 14.4535 51.4486 14.3256 53.1455C14.1977 54.8425 14.1465 56.2823 14.1465 57.4908C14.1465 58.6735 14.1977 59.3163 14.3256 59.3934C14.4535 59.522 14.8117 59.5991 15.4512 59.6248C16.0651 59.6505 16.7558 59.6505 17.4977 59.6248C18.2396 59.5991 18.9303 59.5477 19.5954 59.4963C20.2349 59.4191 20.6954 59.3677 20.9512 59.2649C21.1303 59.2134 21.2326 58.5964 21.2837 57.4136C21.3093 56.2309 21.3093 54.7654 21.2326 53.017C21.1814 51.2686 21.0535 49.3917 20.9 47.3605C20.7465 45.3293 20.5675 43.4266 20.3884 41.6782C20.2093 39.9041 20.0047 38.4129 19.7744 37.1787C19.5442 35.9446 19.3651 35.2761 19.1605 35.1475C19.0326 34.9418 18.8024 34.8647 18.4698 34.9418C18.1117 35.019 17.8558 35.1218 17.6512 35.1989Z" fill="#6C256A"/>
<path d="M62.751 63.7129C63.2371 65.2299 63.2371 66.5669 62.6999 67.7496C62.1627 68.9324 61.3185 69.9351 60.0906 70.7322C58.8883 71.5292 57.4045 72.1463 55.6906 72.5834C53.951 73.0205 52.1604 73.1747 50.3185 73.0976C50.2673 73.1747 50.1906 73.2776 50.1394 73.3547C50.0883 73.4318 49.9859 73.5604 49.858 73.689C49.7301 73.8175 49.9092 74.1518 50.4208 74.7174C50.9069 75.2831 51.4952 75.9001 52.1859 76.5944C52.8766 77.2886 53.5417 77.9571 54.1813 78.6256C54.8208 79.2941 55.2557 79.7826 55.4348 80.0911C55.7417 80.7853 55.6906 81.3767 55.3069 81.8909C54.8976 82.4051 54.2836 82.8422 53.4394 83.1765C52.5952 83.5107 51.572 83.7678 50.3697 83.9478C49.1673 84.1278 47.9138 84.2049 46.6092 84.2049C44.9464 84.2049 43.3348 83.845 41.7487 83.0993C40.1627 82.3537 38.9604 81.5567 38.0906 80.7082C37.2208 79.834 36.8627 79.0369 37.0162 78.2913C37.1697 77.5457 38.1162 77.1086 39.8557 77.0315C40.7766 76.98 41.7487 77.0057 42.772 77.1086C43.7952 77.1857 44.6906 77.34 45.458 77.52C46.2255 77.7257 46.8138 77.9571 47.2231 78.2656C47.6324 78.5741 47.7348 78.9084 47.5557 79.2941C47.5045 79.4226 47.2743 79.5255 46.9162 79.5769C46.5324 79.654 46.1231 79.654 45.6627 79.654C45.2022 79.6283 44.7417 79.5512 44.2813 79.4226C43.8208 79.2941 43.4883 79.0884 43.3092 78.8313C43.1813 78.6513 42.9255 78.6256 42.5673 78.7027C42.2092 78.7798 42.0045 78.9341 42.0045 79.1655C42.0557 79.6026 42.2859 79.9111 42.6441 80.0911C43.0278 80.2968 43.4115 80.5796 43.8464 80.9653C44.4092 81.2995 45.0743 81.5052 45.8417 81.5567C46.6092 81.6081 47.3255 81.5567 47.965 81.4281C48.6045 81.2996 49.1162 81.0939 49.4999 80.811C49.8836 80.5282 49.9348 80.2197 49.679 79.8854C49.372 79.5512 48.9627 79.0884 48.4255 78.497C47.8883 77.9056 47.3766 77.34 46.8394 76.7486C46.3278 76.1573 45.8417 75.6173 45.4069 75.1288C44.972 74.6403 44.7417 74.2803 44.665 74.0489C44.4859 73.5861 44.358 73.1747 44.2813 72.8405C44.2301 72.5062 44.3324 72.2491 44.665 72.0434C42.6952 71.4007 40.9557 70.3465 39.4208 68.8809C38.3208 67.801 37.5278 66.5412 37.0162 65.1271C36.5301 63.7129 36.2231 62.2217 36.0952 60.6533C35.9673 59.1106 35.9673 57.5679 36.0441 56.0252C36.1464 54.5082 36.172 53.0941 36.172 51.7828C36.172 50.5744 36.1976 49.006 36.2231 47.0519C36.2487 45.1236 36.5045 43.0409 37.0162 40.8812C37.5022 38.6957 38.3208 36.5359 39.4976 34.3505C40.6487 32.165 42.4138 30.2624 44.7417 28.6168C46.5836 27.5369 48.5022 26.817 50.5231 26.4314C52.5441 26.0457 54.4371 25.9171 56.279 26.0714C58.0952 26.2257 59.7324 26.637 61.1906 27.3055C62.6487 27.974 63.7487 28.8482 64.5417 29.9538C65.3092 31.0594 65.6673 32.3193 65.565 33.7591C65.4627 35.199 64.7976 36.7673 63.5697 38.4386C63.1859 38.9014 62.6743 39.6213 61.9836 40.5469C61.2929 41.4725 60.5255 42.4239 59.6301 43.4009C58.7348 44.3779 57.7883 45.2521 56.7906 46.0492C55.7929 46.8462 54.8464 47.3347 53.9255 47.5404C53.0045 47.7461 52.1348 47.5404 51.3673 46.9234C50.5999 46.332 49.9859 45.1236 49.551 43.298C49.372 42.4753 49.4743 41.6268 49.8836 40.7012C50.2929 39.8013 50.8045 38.9271 51.4185 38.0786C52.0324 37.2302 52.6976 36.4331 53.4138 35.6618C54.1301 34.8904 54.6929 34.2219 55.0766 33.6563C55.4859 33.0906 55.6394 32.6535 55.5883 32.3193C55.5371 31.985 55.051 31.8565 54.2069 31.9079C52.5952 32.165 51.2394 33.142 50.1138 34.839C48.9883 36.5359 48.1185 38.7986 47.479 41.6011C46.8394 44.4036 46.4045 47.6947 46.2255 51.5C46.0464 55.3053 46.0976 59.4191 46.4045 63.8415C46.5324 65.5642 46.8906 66.8497 47.5301 67.7239C48.1441 68.5981 48.9115 69.1123 49.8069 69.318C50.7022 69.5237 51.6743 69.4466 52.672 69.1123C53.6952 68.7781 54.6417 68.3153 55.5115 67.7239C56.3813 67.1325 57.1231 66.4383 57.7371 65.6927C58.351 64.9471 58.7348 64.2272 58.8627 63.533C58.9138 63.1473 59.1441 62.8902 59.5534 62.7616C59.9627 62.633 60.372 62.6073 60.8069 62.6588C61.2417 62.7359 61.6511 62.8645 62.0604 63.0444C62.4441 63.3015 62.6743 63.5072 62.751 63.7129Z" fill="#6C256A"/>
<path d="M72.958 72.5834C72.5232 72.6348 72.0371 72.6348 71.4743 72.5834C70.9115 72.5319 70.3999 72.4548 69.9394 72.3263C69.479 72.1977 69.0952 72.0177 68.8138 71.7863C68.5324 71.5549 68.4045 71.2721 68.4045 70.9893C68.4045 70.8093 68.5069 70.1665 68.6859 69.0609C68.865 67.9296 69.0952 66.5155 69.3255 64.7671C69.5813 63.0187 69.8627 61.0647 70.1697 58.8792C70.4766 56.6937 70.7836 54.4568 71.0906 52.1171C71.3976 49.7773 71.7045 47.489 71.9604 45.2264C72.2417 42.9638 72.4976 40.8812 72.7534 38.9785C73.0092 37.0759 73.1883 35.4561 73.3162 34.0934C73.4441 32.7307 73.4952 31.8308 73.4952 31.3422C73.4952 30.7766 73.5976 30.2881 73.7766 29.8767C73.9557 29.4653 74.6208 29.2082 75.7208 29.0796C77.6394 28.8739 79.5325 28.5911 81.3743 28.2312C83.2418 27.8969 85.0836 27.5112 86.9511 27.1256C87.565 26.997 88.2557 26.997 89.0487 27.1256C89.8162 27.2541 90.558 27.4598 91.2231 27.7426C91.9138 28.0255 92.5022 28.3597 92.9883 28.7711C93.4743 29.1825 93.7301 29.5939 93.7301 30.031C93.7301 30.3395 93.8069 31.0851 93.9604 32.2678C94.1138 33.4506 94.2929 34.9161 94.472 36.6645C94.6511 38.4129 94.8813 40.3669 95.1115 42.5267C95.3673 44.6865 95.6231 46.8719 95.9045 49.1346C96.1859 51.3714 96.4418 53.5826 96.6976 55.7424C96.9534 57.9021 97.1836 59.8819 97.4394 61.656C97.6952 63.4558 97.8999 64.9728 98.0534 66.2069C98.2069 67.4668 98.3092 68.2639 98.3859 68.6752C98.5138 69.2666 98.5906 69.9351 98.6673 70.6807C98.7185 71.4264 98.4115 71.9406 97.7464 72.2234C97.3115 72.4034 96.6976 72.5062 95.9301 72.5577C95.1627 72.6091 94.3697 72.6091 93.5766 72.5577C92.7836 72.5062 92.0162 72.4548 91.2999 72.4034C90.5836 72.3263 90.072 72.2748 89.765 72.172C89.1511 72.0949 88.7162 71.9149 88.4604 71.6321C88.2045 71.3492 88.0511 70.9636 87.9487 70.5008C87.8464 70.0379 87.8208 69.4466 87.8464 68.7267C87.872 68.0067 87.872 67.1583 87.7952 66.1812C87.7441 65.6156 87.6673 65.2042 87.565 64.9471C87.4627 64.69 87.0534 64.3814 86.3115 64.0472C86.1324 63.97 85.7743 63.8929 85.2883 63.8415C84.8022 63.7901 84.2138 63.7644 83.5743 63.7386C82.9348 63.7129 82.2697 63.7129 81.579 63.7386C80.8883 63.7644 80.2999 63.8158 79.8138 63.8929C79.3278 63.97 78.9441 64.2786 78.6627 64.7928C78.3813 65.307 78.1766 66.0012 78.0487 66.8497C77.9208 67.5439 77.7929 68.2639 77.6394 68.9838C77.4859 69.7294 77.4348 70.4236 77.5115 71.1178C77.5627 71.8635 77.1278 72.2491 76.2069 72.352C75.2604 72.4034 74.1859 72.4805 72.958 72.5834ZM83.7022 35.1989C83.2673 35.4561 82.8836 36.2274 82.5511 37.4873C82.2185 38.7471 81.9115 40.2641 81.6301 42.0125C81.3487 43.7609 81.0929 45.6121 80.8883 47.6176C80.658 49.5974 80.5045 51.4486 80.3766 53.1455C80.2487 54.8425 80.1976 56.2823 80.1976 57.4908C80.1976 58.6735 80.2487 59.3163 80.3766 59.3934C80.5045 59.522 80.8627 59.5991 81.5022 59.6248C82.1162 59.6505 82.8069 59.6505 83.5487 59.6248C84.2906 59.5991 84.9813 59.5477 85.6464 59.4963C86.2859 59.4191 86.7464 59.3677 87.0022 59.2649C87.1813 59.2134 87.2836 58.5964 87.3348 57.4136C87.3604 56.2309 87.3604 54.7654 87.2836 53.017C87.2325 51.2686 87.1045 49.3917 86.9511 47.3605C86.7976 45.3293 86.6185 43.4266 86.4394 41.6782C86.2604 39.9041 86.0557 38.4129 85.8255 37.1787C85.5952 35.9446 85.4162 35.2761 85.2115 35.1475C85.0836 34.9418 84.8534 34.8647 84.5208 34.9418C84.1627 35.019 83.9069 35.1218 83.7022 35.1989Z" fill="#6C256A"/>
<path d="M120.744 18.4351C120.156 16.9181 118.672 15.9925 116.344 15.6583C115.935 15.5554 115.5 15.5554 115.039 15.6583C113.428 15.9154 111.637 16.5067 109.744 17.3809C108.005 18.2037 105.702 19.3093 102.786 20.7491C101.609 21.3405 100.842 21.7519 100.356 22.0861C98.1302 23.6288 98.9999 25.4029 99.179 25.7114C99.665 26.5599 100.509 27.0484 101.737 27.0999C102.146 27.1256 102.632 27.1256 103.17 27.1256C103.272 27.1256 103.349 27.1256 103.477 27.1256C102.888 27.6398 102.351 28.4368 102.019 29.7481C101.737 30.8537 101.532 32.2164 101.43 33.862C101.328 35.3789 101.277 37.1016 101.277 38.9271C101.277 40.7526 101.302 42.5524 101.328 44.3779C101.353 46.1777 101.379 47.8747 101.43 49.4688C101.456 51.0115 101.481 52.3228 101.481 53.3769C101.353 56.848 101.379 60.2419 101.532 63.5072C101.686 66.6955 101.763 69.3437 101.763 71.3749C101.763 72.352 102.198 74.6403 106.214 75.0774C107.186 75.1802 108.286 75.2317 109.488 75.2317C110.358 75.2317 111.253 75.2059 112.226 75.1545C112.788 75.1545 114.195 75.1031 115.142 74.0232C115.705 73.3804 115.986 72.5834 115.986 71.7092C115.986 71.0664 115.832 70.4236 115.551 69.7808C115.474 69.6008 115.423 69.4723 115.398 69.3952C115.372 69.1123 115.321 68.3924 115.295 66.7983C115.27 65.3327 115.27 63.533 115.346 61.476C115.398 59.3934 115.5 57.1051 115.628 54.6368C115.756 52.1942 115.909 49.7259 116.088 47.3348C116.267 44.9693 116.523 42.7324 116.856 40.6755C117.163 38.67 117.546 36.9988 117.93 35.7132C118.595 33.5277 118.826 31.805 118.672 30.3909C118.467 28.694 117.828 27.3827 116.728 26.4828C116.037 25.9171 115.244 25.5057 114.374 25.2743C115.935 24.7601 117.393 24.0916 118.749 23.2946C121.665 21.4948 121 19.1293 120.744 18.4351Z" fill="white"/>
<path d="M115.833 17.998C117.368 18.178 118.288 18.6151 118.544 19.3093C118.826 20.0292 118.468 20.672 117.47 21.2634C116.242 21.9833 114.912 22.6004 113.454 23.0632C111.995 23.526 110.614 23.9116 109.258 24.1688C107.902 24.4259 106.674 24.6058 105.574 24.683C104.474 24.7601 103.656 24.8115 103.17 24.8115C102.684 24.8115 102.249 24.8115 101.865 24.7858C101.507 24.7601 101.277 24.7087 101.226 24.5801C101.174 24.4773 101.328 24.2973 101.686 24.0402C102.044 23.7831 102.761 23.3974 103.809 22.8832C106.7 21.4691 109.002 20.3635 110.742 19.5407C112.456 18.7179 114.042 18.2037 115.449 17.998C115.654 17.9466 115.781 17.9466 115.833 17.998ZM103.835 53.4284C103.835 52.3485 103.809 51.0372 103.784 49.4431C103.758 47.849 103.733 46.152 103.681 44.3522C103.656 42.5524 103.63 40.7526 103.63 38.9528C103.63 37.153 103.681 35.5075 103.758 34.0419C103.861 32.5507 104.014 31.3422 104.27 30.3652C104.526 29.3882 104.884 28.8482 105.37 28.7197C105.856 28.5911 106.547 28.4111 107.391 28.1283C108.261 27.8712 109.156 27.6655 110.077 27.5112C110.998 27.357 111.919 27.3055 112.84 27.3827C113.761 27.4598 114.528 27.7426 115.142 28.2569C115.756 28.7711 116.114 29.5682 116.242 30.648C116.37 31.7279 116.14 33.1678 115.602 35.019C115.168 36.3817 114.784 38.1558 114.451 40.2898C114.119 42.4239 113.863 44.7122 113.658 47.1291C113.479 49.5459 113.326 52.0142 113.198 54.5082C113.07 57.0023 112.993 59.2906 112.916 61.3989C112.865 63.5072 112.84 65.307 112.865 66.824C112.891 68.341 112.942 69.3437 112.993 69.8065C113.044 70.0637 113.172 70.3722 113.326 70.7065C113.479 71.0407 113.556 71.3749 113.556 71.6835C113.556 71.992 113.454 72.2491 113.274 72.4548C113.095 72.6605 112.686 72.7634 112.072 72.7634C109.847 72.8919 107.954 72.8662 106.393 72.6862C104.833 72.5063 104.04 72.0692 104.04 71.3235C104.04 69.2152 103.963 66.5669 103.809 63.353C103.733 60.1905 103.707 56.8737 103.835 53.4284Z" fill="#6C256A"/>
<path d="M59.7582 77.34C59.7582 77.5457 59.8861 77.7 60.142 77.8028C60.3978 77.9056 60.8326 77.9571 61.4722 77.9571C62.828 77.9571 63.8001 78.2142 64.414 78.677C65.0024 79.1655 65.3094 79.8854 65.3094 80.8882C65.3094 81.9681 64.9513 82.7908 64.2606 83.3565C63.5699 83.9221 62.5466 84.2049 61.2164 84.2049C59.6047 84.2049 58.3768 83.7936 57.5326 82.9708C57.2768 82.7394 57.1489 82.4051 57.1489 82.0195C57.1489 81.6595 57.2513 81.3767 57.4559 81.1453C57.6606 80.9139 57.9164 80.811 58.2489 80.811C58.5559 80.811 58.8629 80.9396 59.1443 81.1453C59.7326 81.6338 60.4745 81.8909 61.3699 81.8909C62.3419 81.8909 62.828 81.6081 62.828 81.0167C62.828 80.7853 62.7001 80.6311 62.4443 80.5282C62.1885 80.4254 61.728 80.3739 61.0629 80.3739C59.7326 80.3739 58.7606 80.1168 58.1722 79.654C57.5838 79.1912 57.2768 78.4713 57.2768 77.4943C57.2768 76.4658 57.635 75.6688 58.3768 75.0774C59.0931 74.486 60.0908 74.2032 61.3443 74.2032C62.521 74.2032 63.5187 74.486 64.3373 75.0517C64.721 75.3088 64.9001 75.6945 64.9001 76.183C64.9001 76.5429 64.7978 76.8258 64.5931 77.0572C64.3885 77.2886 64.1326 77.3914 63.8001 77.3914C63.5443 77.3914 63.2629 77.2886 62.9559 77.0829C62.4187 76.7229 61.8047 76.5429 61.1396 76.5429C60.7047 76.5429 60.3722 76.6201 60.142 76.7743C59.8861 76.8772 59.7582 77.0829 59.7582 77.34Z" fill="#6C256A"/>
<path d="M72.6256 74.666C72.8302 74.4089 73.1372 74.306 73.5209 74.306C73.9047 74.306 74.2116 74.4346 74.4163 74.666C74.6465 74.9231 74.7488 75.2574 74.7488 75.6944V79.8597C74.7488 81.2995 74.3907 82.3794 73.7 83.125C73.0093 83.8707 72.0116 84.2564 70.6814 84.2564C69.3512 84.2564 68.3279 83.8707 67.6372 83.125C66.9465 82.3794 66.5884 81.2738 66.5884 79.8597V75.7459C66.5884 75.3088 66.6907 74.9488 66.9209 74.7174C67.1512 74.4603 67.4582 74.3317 67.8419 74.3317C68.2256 74.3317 68.5326 74.4603 68.7628 74.7174C68.993 74.9745 69.0954 75.3088 69.0954 75.7459V79.834C69.0954 80.4768 69.2233 80.991 69.5047 81.3252C69.7861 81.6595 70.1698 81.8395 70.707 81.8395C71.2442 81.8395 71.6279 81.6595 71.9093 81.3252C72.1907 80.991 72.3186 80.4768 72.3186 79.834V75.7202C72.293 75.2316 72.3954 74.8974 72.6256 74.666Z" fill="#6C256A"/>
<path d="M82.9092 74.666C83.1139 74.4089 83.4209 74.306 83.8046 74.306C84.1883 74.306 84.4953 74.4346 84.6999 74.666C84.9046 74.9231 85.0325 75.2574 85.0325 75.6944V82.5337C85.0325 83.0222 84.9046 83.4079 84.6488 83.7164C84.393 83.9992 84.0348 84.1535 83.6255 84.1535C83.0116 84.1535 82.4999 83.8964 82.1418 83.3565L78.8674 78.497H78.8418V82.7908C78.8418 83.2279 78.7395 83.5621 78.5092 83.8193C78.279 84.0764 77.9976 84.1792 77.6139 84.1792C77.2302 84.1792 76.9232 84.0507 76.7185 83.8193C76.4883 83.5621 76.386 83.2279 76.386 82.7908V75.9516C76.386 75.463 76.5139 75.0774 76.7697 74.7688C77.0255 74.486 77.3837 74.3317 77.793 74.3317C78.3813 74.3317 78.8674 74.5889 79.2255 75.1288L82.5255 80.014H82.5511V75.7202C82.6023 75.2316 82.7046 74.8974 82.9092 74.666Z" fill="#6C256A"/>
<path d="M89.0744 77.34C89.0744 77.5457 89.2023 77.7 89.4581 77.8028C89.7139 77.9056 90.1488 77.9571 90.7883 77.9571C92.1442 77.9571 93.1162 78.2142 93.7302 78.677C94.3186 79.1655 94.6256 79.8854 94.6256 80.8882C94.6256 81.9681 94.2674 82.7908 93.5767 83.3565C92.886 83.9221 91.8628 84.2049 90.5325 84.2049C88.9209 84.2049 87.693 83.7936 86.8488 82.9708C86.593 82.7394 86.4651 82.4051 86.4651 82.0195C86.4651 81.6595 86.5674 81.3767 86.7721 81.1453C86.9767 80.9139 87.2325 80.811 87.5651 80.811C87.8721 80.811 88.179 80.9396 88.4604 81.1453C89.0488 81.6338 89.7907 81.8909 90.686 81.8909C91.6581 81.8909 92.1442 81.6081 92.1442 81.0167C92.1442 80.7853 92.0163 80.6311 91.7604 80.5282C91.5046 80.4254 91.0442 80.3739 90.379 80.3739C89.0488 80.3739 88.0767 80.1168 87.4883 79.654C86.9 79.1912 86.593 78.4713 86.593 77.4943C86.593 76.4658 86.9511 75.6688 87.693 75.0774C88.4093 74.486 89.4069 74.2032 90.6604 74.2032C91.8372 74.2032 92.8349 74.486 93.6535 75.0517C94.0372 75.3088 94.2162 75.6945 94.2162 76.183C94.2162 76.5429 94.1139 76.8258 93.9093 77.0572C93.7046 77.2886 93.4488 77.3914 93.1163 77.3914C92.8604 77.3914 92.579 77.2886 92.2721 77.0829C91.7349 76.7229 91.1209 76.5429 90.4558 76.5429C90.0209 76.5429 89.6883 76.6201 89.4581 76.7743C89.2023 76.8772 89.0744 77.0829 89.0744 77.34Z" fill="#6C256A"/>
<path d="M98.5395 81.6081H102.786C103.17 81.6081 103.451 81.7109 103.681 81.9423C103.912 82.148 104.014 82.4566 104.014 82.8422C104.014 83.2279 103.912 83.5107 103.681 83.7164C103.477 83.9221 103.17 84.0507 102.786 84.0507H97.3627C96.9534 84.0507 96.6208 83.9221 96.3906 83.665C96.1604 83.4079 96.0325 83.0736 96.0325 82.6365V75.7973C96.0325 75.3602 96.1604 75.0003 96.3906 74.7689C96.6208 74.5117 96.9534 74.3832 97.3627 74.3832H102.786C103.17 74.3832 103.451 74.486 103.681 74.7174C103.912 74.9231 104.014 75.2317 104.014 75.5916C104.014 75.9773 103.912 76.2601 103.681 76.4915C103.477 76.6972 103.17 76.8258 102.786 76.8258H98.5395V78.0856H101.814C102.172 78.0856 102.453 78.1885 102.658 78.3942C102.863 78.5999 102.965 78.8827 102.965 79.2426C102.965 79.6026 102.863 79.8854 102.658 80.0911C102.453 80.2968 102.172 80.3997 101.814 80.3997H98.5139V81.6081H98.5395Z" fill="#6C256A"/>
<path d="M105.83 74.3832H112.379C112.763 74.3832 113.044 74.486 113.274 74.7174C113.505 74.9231 113.607 75.2317 113.607 75.5916C113.607 75.9773 113.505 76.2601 113.274 76.4915C113.044 76.6972 112.763 76.8258 112.379 76.8258H110.358V82.7394C110.358 83.1765 110.256 83.5364 110.026 83.7679C109.795 84.025 109.488 84.1535 109.105 84.1535C108.721 84.1535 108.414 84.025 108.184 83.7679C107.953 83.5107 107.851 83.1765 107.851 82.7394V76.8258H105.83C105.446 76.8258 105.165 76.7229 104.935 76.4915C104.73 76.2858 104.602 75.9773 104.602 75.5916C104.602 75.2059 104.705 74.9231 104.935 74.7174C105.165 74.486 105.446 74.3832 105.83 74.3832Z" fill="#6C256A"/>
</g>
<defs>
<clipPath id="clip0_563_1159">
<rect width="121" height="103" fill="white"/>
</clipPath>
</defs>
</svg>
